:FULLY-SPECIFIED
:FORCE-ALL-JOINTS-BE-3DOF
:DEGREES
985
root 1.11483 15.1522 32.4941 5.36329 -4.67972 4.13392
lfemur 8.71554 1.76783 5.16147
ltibia 3.44529e-14 -0 0
lfoot -30.1087 -11.7231 4.71244e-06
ltoes -33.8615 0 0
rfemur -32.9591 -15.4798 -6.27409
rtibia 50.852 -0 0
rfoot -22.6292 4.95653 4.20075e-05
rtoes -41.9468 0 0
lowerback -1.52932 -0.418956 0.689092
upperback -0.724524 -0.563027 -5.90776
thorax 0.045416 -0.298035 -6.52746
lowerneck -6.65648 1.14084 5.85641
upperneck 1.08139 0.941447 3.34471
head 1.47154 0.57349 0.0899617
lclavicle 8.08814e-15 2.62604e-14 -4.54545e-30
lhumerus -58.4433 -45.2336 114.861
lradius 55.0767 -0 0
lwrist 25.2203 0 0
lhand 37.2614 24.4333 2.62608e-05
lfingers 7.12502 -0 0
lthumb 60.0888 38.1201 1.15249e-05
rclavicle 8.08814e-15 2.62604e-14 -4.54545e-30
rhumerus 3.74947 -24.9982 -0.175891
rradius 28.0352 -0 0
rwrist -11.2797 0 0
rhand -31.3989 -44.5096 -0.000163579
rfingers 7.12502 -0 0
rthumb -4.6683 -74.4383 -0.000158484
986
root 1.11812 15.1541 32.4887 5.33075 -4.67516 4.11949
lfemur 8.72362 1.75194 5.16402
ltibia 2.80547e-14 -0 0
lfoot -30.1103 -11.7053 6.93001e-06
ltoes -33.8825 0 0
rfemur -32.9011 -15.5179 -6.26407
rtibia 50.7701 -0 0
rfoot -22.6537 4.95996 4.19286e-06
rtoes -42.0504 0 0
lowerback -1.51461 -0.394883 0.683313
upperback -0.721152 -0.530828 -5.88683
thorax 0.0447576 -0.281653 -6.50119
lowerneck -6.70999 1.15229 5.83998
upperneck 1.13536 0.951265 3.34742
head 1.49849 0.580714 0.0942458
lclavicle -9.31968e-17 1.53789e-14 -3.75064e-30
lhumerus -58.363 -45.1731 114.85
lradius 55.0604 -0 0
lwrist 25.1043 0 0
lhand 37.2473 24.4105 1.91724e-05
lfingers 7.12502 -0 0
lthumb 60.0767 38.11 8.92978e-06
rclavicle -9.31968e-17 1.53789e-14 -3.75064e-30
rhumerus 3.74866 -24.9254 -0.170623
rradius 28.0081 -0 0
rwrist -11.2243 0 0
rhand -31.4255 -44.5054 -0.000134367
rfingers 7.12502 -0 0
rthumb -4.69405 -74.4334 -0.000129953
987
root 1.12114 15.1559 32.4833 5.29951 -4.66333 4.1043
lfemur 8.72787 1.72999 5.16895
ltibia 2.25049e-14 -0 0
lfoot -30.1127 -11.6832 5.89253e-06
ltoes -33.9037 0 0
rfemur -32.8425 -15.5553 -6.2539
rtibia 50.694 -0 0
rfoot -22.6781 4.95481 -1.31654e-05
rtoes -42.155 0 0
lowerback -1.50038 -0.37436 0.676727
upperback -0.717365 -0.503346 -5.86798
thorax 0.0442141 -0.267643 -6.47678
lowerneck -6.75596 1.1621 5.82851
upperneck 1.18151 0.959416 3.35148
head 1.52159 0.586828 0.0980179
lclavicle -7.22004e-15 6.09683e-15 -1.87275e-30
lhumerus -58.2999 -45.1362 114.851
lradius 55.0474 -0 0
lwrist 25.0147 0 0
lhand 37.2368 24.3918 8.89298e-06
lfingers 7.12502 -0 0
lthumb 60.0678 38.1008 4.67974e-06
rclavicle -7.22004e-15 6.09683e-15 -1.87275e-30
rhumerus 3.74762 -24.8508 -0.169252
rradius 27.9843 -0 0
rwrist -11.1762 0 0
rhand -31.4429 -44.4901 -8.07167e-05
rfingers 7.12502 -0 0
rthumb -4.71081 -74.4176 -7.7846e-05
988
root 1.1238 15.1573 32.4781 5.2697 -4.63928 364.088
lfemur 8.7258 1.6976 5.17712
ltibia 1.90833e-14 0 0
lfoot -30.1159 -11.6552 0
ltoes -33.9256 0 0
rfemur -32.7814 -15.5868 -6.24436
rtibia 50.6256 0 0
rfoot -22.6997 4.93313 0
rtoes -42.2585 0 0
lowerback -1.48754 -0.359459 0.669615
upperback -0.712469 -0.483304 -5.85243
thorax 0.0446671 -0.257355 -6.4557
lowerneck -6.78983 1.16834 5.82499
upperneck 1.21788 0.963487 3.35806
head 1.53935 0.590558 0.101043
lclavicle -1.22253e-14 0 0
lhumerus -58.2643 -45.1387 114.869
lradius 55.0398 0 0
lwrist 24.9687 0 0
lhand 37.2319 24.379 0
lfingers 7.12502 0 0
lthumb 60.0636 38.0924 0
rclavicle -1.22253e-14 0 0
rhumerus 3.74548 -24.7764 -0.17803
rradius 27.9644 0 0
rwrist -11.1351 0 0
rhand -31.4451 -44.4536 0
rfingers 7.12502 0 0
rthumb -4.71295 -794.381 0
989
root 1.12608 15.1584 32.4729 5.241 -4.60254 4.07084
lfemur 8.71742 1.65418 5.18864
ltibia 1.74884e-14 -0 0
lfoot -30.1206 -11.6211 -9.46986e-06
ltoes -33.9472 0 0
rfemur -32.7174 -15.6165 -6.23541
rtibia 50.5651 -0 0
rfoot -22.7222 4.89408 4.1765e-05
rtoes -42.3675 0 0
lowerback -1.47524 -0.35089 0.661327
upperback -0.706757 -0.471682 -5.84031
thorax 0.0452305 -0.251303 -6.43775
lowerneck -6.8096 1.17189 5.83047
upperneck 1.24147 0.964823 3.36772
head 1.55048 0.592475 0.103355
lclavicle -1.5399e-14 -3.38455e-15 1.16291e-30
lhumerus -58.26 -45.1873 114.91
lradius 55.0369 -0 0
lwrist 24.9722 0 0
lhand 37.2352 24.3722 -3.17054e-06
lfingers 7.12502 -0 0
lthumb 60.0664 38.0827 -2.55842e-06
rclavicle -1.5399e-14 -3.38455e-15 1.16291e-30
rhumerus 3.74504 -24.6979 -0.197902
rradius 27.9489 -0 0
rwrist -11.104 0 0
rhand -31.4299 -44.3943 9.71909e-05
rfingers 7.12502 -0 0
rthumb -4.69823 -74.322 9.32531e-05
990
root 1.12801 15.1592 32.4677 5.21318 -4.55735 4.0532
lfemur 8.70497 1.60344 5.20278
ltibia 1.64823e-14 -0 0
lfoot -30.1272 -11.5823 -1.81543e-05
ltoes -33.9681 0 0
rfemur -32.6523 -15.6501 -6.2263
rtibia 50.5106 -0 0
rfoot -22.7495 4.84446 8.9102e-05
rtoes -42.4859 0 0
lowerback -1.4624 -0.347049 0.651393
upperback -0.700951 -0.466388 -5.83061
thorax 0.0448224 -0.24846 -6.42151
lowerneck -6.81865 1.17476 5.84266
upperneck 1.25303 0.966016 3.37964
head 1.55586 0.593902 0.105173
lclavicle -1.77865e-14 -5.62392e-15 1.81283e-30
lhumerus -58.2792 -45.27 114.969
lradius 55.0364 -0 0
lwrist 25.0123 0 0
lhand 37.2455 24.3697 -5.36837e-07
lfingers 7.12502 -0 0
lthumb 60.0752 38.0709 -1.08601e-06
rclavicle -1.77865e-14 -5.62392e-15 1.81283e-30
rhumerus 3.74798 -24.6122 -0.223614
rradius 27.9372 -0 0
rwrist -11.084 0 0
rhand -31.4015 -44.3206 0.000183895
rfingers 7.12502 -0 0
rthumb -4.67088 -74.2489 0.000176213
991
root 1.12966 15.1598 32.4626 5.18651 -4.50585 4.03495
lfemur 8.68925 1.54744 5.21914
ltibia 1.59399e-14 -0 0
lfoot -30.1351 -11.5396 -2.34122e-05
ltoes -33.9888 0 0
rfemur -32.5869 -15.6854 -6.21684
rtibia 50.4614 -0 0
rfoot -22.7787 4.78777 0.000121911
rtoes -42.6079 0 0
lowerback -1.44957 -0.346533 0.640366
upperback -0.694997 -0.465533 -5.82279
thorax 0.04403 -0.247862 -6.40672
lowerneck -6.82048 1.17672 5.85952
upperneck 1.25621 0.966529 3.39284
head 1.55726 0.594694 0.10654
lclavicle -1.94532e-14 -6.77375e-15 1.98149e-30
lhumerus -58.3147 -45.3751 115.039
lradius 55.0382 -0 0
lwrist 25.0771 0 0
lhand 37.2597 24.3709 5.05916e-06
lfingers 7.12502 -0 0
lthumb 60.0873 38.0592 4.16971e-06
rclavicle -1.94532e-14 -6.77375e-15 1.98149e-30
rhumerus 3.75174 -24.5228 -0.252117
rradius 27.9287 -0 0
rwrist -11.0723 0 0
rhand -31.3644 -44.2376 0.000231729
rfingers 7.12502 -0 0
rthumb -4.63505 -74.1666 0.000221847
992
root 1.13111 15.1602 32.4576 5.16126 -4.45014 4.01595
lfemur 8.67106 1.48823 5.23734
ltibia 1.57359e-14 -0 0
lfoot -30.1433 -11.4937 -2.36647e-05
ltoes -34.0102 0 0
rfemur -32.5222 -15.7202 -6.2068
rtibia 50.4165 -0 0
rfoot -22.807 4.7275 0.000127958
rtoes -42.7275 0 0
lowerback -1.4373 -0.347941 0.628799
upperback -0.688838 -0.467229 -5.8163
thorax 0.0434414 -0.248545 -6.39309
lowerneck -6.81861 1.17755 5.87902
upperneck 1.25465 0.96582 3.40636
head 1.55649 0.594706 0.107496
lclavicle -2.0465e-14 -6.88966e-15 1.74964e-30
lhumerus -58.3594 -45.4906 115.114
lradius 55.0425 -0 0
lwrist 25.155 0 0
lhand 37.2747 24.375 1.0218e-05
lfingers 7.12502 -0 0
lthumb 60.1002 38.0497 1.11608e-05
rclavicle -2.0465e-14 -6.88966e-15 1.74964e-30
rhumerus 3.75379 -24.4333 -0.28038
rradius 27.9228 -0 0
rwrist -11.0662 0 0
rhand -31.3228 -44.1502 0.000225015
rfingers 7.12502 -0 0
rthumb -4.59485 -74.0801 0.000215285
993
root 1.1324 15.1605 32.4529 5.1377 -4.39234 3.99604
lfemur 8.65119 1.42785 5.25699
ltibia 1.57452e-14 -0 0
lfoot -30.151 -11.4454 -1.86903e-05
ltoes -34.0329 0 0
rfemur -32.459 -15.7523 -6.19596
rtibia 50.3752 -0 0
rfoot -22.8314 4.66712 0.000104353
rtoes -42.8388 0 0
lowerback -1.42611 -0.349872 0.617245
upperback -0.682418 -0.469587 -5.81061
thorax 0.0436452 -0.249547 -6.38033
lowerneck -6.81657 1.17704 5.8991
upperneck 1.25202 0.96335 3.41923
head 1.55532 0.593792 0.108086
lclavicle -2.08873e-14 -6.02729e-15 1.2376e-30
lhumerus -58.4061 -45.6045 115.187
lradius 55.0493 -0 0
lwrist 25.2342 0 0
lhand 37.2873 24.3814 1.20285e-05
lfingers 7.12502 -0 0
lthumb 60.1109 38.0447 1.59398e-05
rclavicle -2.08873e-14 -6.02729e-15 1.2376e-30
rhumerus 3.75161 -24.3473 -0.305385
rradius 27.9187 -0 0
rwrist -11.0628 0 0
rhand -31.2809 -44.0634 0.000166243
rfingers 7.12502 -0 0
rthumb -4.5544 -73.9942 0.00015899
